<?xml version="1.0" encoding="UTF-8" standalone="no"?>
<!-- Generator: Adobe Illustrator 18.1.1, SVG Export Plug-In . SVG Version: 6.00 Build 0)  -->

<svg
   xmlns:dc="http://purl.org/dc/elements/1.1/"
   xmlns:cc="http://creativecommons.org/ns#"
   xmlns:rdf="http://www.w3.org/1999/02/22-rdf-syntax-ns#"
   xmlns:svg="http://www.w3.org/2000/svg"
   xmlns="http://www.w3.org/2000/svg"
   xmlns:sodipodi="http://sodipodi.sourceforge.net/DTD/sodipodi-0.dtd"
   xmlns:inkscape="http://www.inkscape.org/namespaces/inkscape"
   version="1.1"
   id="Capa_1"
   x="0px"
   y="0px"
   viewBox="0 0 1005 1005"
   xml:space="preserve"
   inkscape:version="0.91 r13725"
   sodipodi:docname="photo-camera.svg"
   width="1005"
   height="1005"
   inkscape:export-filename="/Users/adrian/Downloads/photo-camera.png"
   inkscape:export-xdpi="30"
   inkscape:export-ydpi="30"><metadata
     id="metadata43"><rdf:RDF><cc:Work
         rdf:about=""><dc:format>image/svg+xml</dc:format><dc:type
           rdf:resource="http://purl.org/dc/dcmitype/StillImage" /><dc:title /></cc:Work></rdf:RDF></metadata><defs
     id="defs41" /><sodipodi:namedview
     pagecolor="#ffffff"
     bordercolor="#666666"
     borderopacity="1"
     objecttolerance="10"
     gridtolerance="10"
     guidetolerance="10"
     inkscape:pageopacity="0"
     inkscape:pageshadow="2"
     inkscape:window-width="1280"
     inkscape:window-height="724"
     id="namedview39"
     showgrid="false"
     inkscape:zoom="0.55522388"
     inkscape:cx="778.06452"
     inkscape:cy="502.5"
     inkscape:window-x="0"
     inkscape:window-y="1"
     inkscape:window-maximized="1"
     inkscape:current-layer="Capa_1" /><g
     id="g3"
     transform="matrix(7.0749317,0,0,7.0749317,148.75341,148.75341)"><g
       id="g5"><path
         style="fill:#030104"
         d="m 50,40 c -8.285,0 -15,6.718 -15,15 0,8.285 6.715,15 15,15 8.283,0 15,-6.715 15,-15 C 65,46.718 58.283,40 50,40 Z M 90,25 78,25 c -1.65,0 -3.428,-1.28 -3.949,-2.846 L 70.949,12.845 C 70.426,11.28 68.65,10 67,10 l -34,0 c -1.65,0 -3.428,1.28 -3.949,2.846 l -3.102,9.309 C 25.426,23.72 23.65,25 22,25 L 10,25 C 4.5,25 0,29.5 0,35 l 0,45 c 0,5.5 4.5,10 10,10 l 80,0 c 5.5,0 10,-4.5 10,-10 l 0,-45 C 100,29.5 95.5,25 90,25 Z M 50,80 C 36.193,80 25,68.807 25,55 25,41.194 36.193,30 50,30 63.805,30 75,41.194 75,55 75,68.807 63.805,80 50,80 Z M 86.5,41.993 c -1.932,0 -3.5,-1.566 -3.5,-3.5 0,-1.932 1.568,-3.5 3.5,-3.5 1.934,0 3.5,1.568 3.5,3.5 0,1.934 -1.567,3.5 -3.5,3.5 z"
         id="path7"
         inkscape:connector-curvature="0" /></g></g><g
     id="g9"
     transform="translate(0,905)" /><g
     id="g11"
     transform="translate(0,905)" /><g
     id="g13"
     transform="translate(0,905)" /><g
     id="g15"
     transform="translate(0,905)" /><g
     id="g17"
     transform="translate(0,905)" /><g
     id="g19"
     transform="translate(0,905)" /><g
     id="g21"
     transform="translate(0,905)" /><g
     id="g23"
     transform="translate(0,905)" /><g
     id="g25"
     transform="translate(0,905)" /><g
     id="g27"
     transform="translate(0,905)" /><g
     id="g29"
     transform="translate(0,905)" /><g
     id="g31"
     transform="translate(0,905)" /><g
     id="g33"
     transform="translate(0,905)" /><g
     id="g35"
     transform="translate(0,905)" /><g
     id="g37"
     transform="translate(0,905)" /><path
     style="fill:#d4f718;fill-opacity:1;fill-rule:evenodd;stroke:none"
     d="M 479.93619,712.55307 C 416.05155,703.47417 363.55833,662.50531 339.10481,602.63979 313.17267,539.15441 328.3508,464.68116 377.49617,414.26821 c 36.27948,-37.21523 92.14985,-57.17219 143.38182,-51.21615 71.09268,8.26496 128.16918,55.36099 149.65965,123.48997 30.34623,96.20349 -30.55706,200.92582 -129.73831,223.08316 -15.92648,3.55802 -46.18616,5.01369 -60.86314,2.92788 z m 58.08602,-73.83069 c 29.40778,-10.39278 55.05486,-36.04684 65.38125,-65.39909 5.48669,-15.59566 6.8546,-44.84201 2.84188,-60.75978 -5.15599,-20.45282 -12.864,-33.70025 -28.8406,-49.56715 -22.36193,-22.2084 -44.38741,-31.45873 -74.90474,-31.45873 -30.66117,0 -52.8248,9.27876 -74.90475,31.3587 -22.07994,22.07994 -31.35869,44.24357 -31.35869,74.90475 0,49.13124 31.62766,90.44576 79.24731,103.51903 14.59463,4.00674 47.74672,2.62966 62.53834,-2.59773 z"
     id="path3478"
     inkscape:connector-curvature="0" /><path
     style="fill:#d4f718;fill-opacity:1;fill-rule:evenodd;stroke:none"
     d="m 746.77363,440.17377 c -5.54447,-4.13244 -10.13384,-13.12795 -10.13384,-19.86311 0,-11.13219 12.54018,-23.00128 24.28641,-22.98672 6.66623,0.008 15.88953,5.41841 20.04225,11.75626 4.05767,6.1928 3.97347,18.53321 -0.1696,24.85634 -6.87059,10.48585 -24.08981,13.64233 -34.02522,6.23723 z"
     id="path3480"
     inkscape:connector-curvature="0" /></svg>